if (_typeface_js && _typeface_js.loadFace) _typeface_js.loadFace({"glyphs":{"S":{"x_min":36,"x_max":1104,"ha":1158,"o":"m 1104 293 q 1008 76 1104 158 q 778 0 916 0 l 55 0 l 55 165 l 779 165 q 897 195 847 165 q 954 297 954 233 q 895 395 954 361 q 779 425 847 425 l 331 425 q 124 493 208 425 q 36 687 36 566 q 124 880 36 807 q 331 949 208 949 l 1047 949 l 1047 783 l 331 783 q 251 757 284 783 q 218 686 218 730 q 251 615 218 640 q 331 590 284 590 l 779 590 q 1008 511 916 590 q 1104 293 1104 427 "},"/":{"x_min":63.890625,"x_max":1091.671875,"ha":1092,"o":"m 1091 949 l 245 -1 l 63 -1 l 918 949 l 1091 949 "},"K":{"x_min":92,"x_max":1050.5,"ha":1066,"o":"m 1050 0 l 807 0 l 336 393 q 288 469 288 434 q 336 544 288 502 l 807 949 l 1050 949 l 485 465 l 1050 0 m 257 0 l 92 0 l 92 949 l 257 949 l 257 0 "},"7":{"x_min":37,"x_max":891,"ha":944,"o":"m 891 850 q 853 754 891 805 l 300 1 l 74 1 l 657 783 l 37 783 l 37 949 l 753 949 q 845 928 809 949 q 891 850 891 901 "},"d":{"x_min":125,"x_max":1137,"ha":1183,"o":"m 1137 484 q 1001 137 1137 275 q 659 0 866 0 l 125 0 l 125 949 l 659 949 q 1003 821 869 949 q 1137 484 1137 693 m 972 471 q 883 696 972 608 q 659 783 795 783 l 288 783 l 288 165 l 659 165 q 883 250 795 165 q 972 471 972 334 "},",":{"x_min":74,"x_max":237.890625,"ha":371,"o":"m 237 207 l 185 -83 l 74 -83 l 74 207 l 237 207 "},"Y":{"x_min":6.65625,"x_max":1124.71875,"ha":1155,"o":"m 1124 949 l 653 314 l 653 0 l 490 0 l 490 316 l 6 949 l 219 949 l 576 482 l 910 949 l 1124 949 "},"E":{"x_min":89,"x_max":908.15625,"ha":1003,"o":"m 866 398 l 324 398 l 324 564 l 866 564 l 866 398 m 908 0 l 89 0 l 89 949 l 908 949 l 908 783 l 254 783 l 254 165 l 908 165 l 908 0 "},"y":{"x_min":6.65625,"x_max":1124.71875,"ha":1155,"o":"m 1124 949 l 653 314 l 653 0 l 490 0 l 490 316 l 6 949 l 219 949 l 576 482 l 910 949 l 1124 949 "},"\"":{"x_min":65,"x_max":474.28125,"ha":523,"o":"m 474 999 l 421 709 l 309 709 l 309 999 l 474 999 m 228 999 l 175 709 l 65 709 l 65 999 l 228 999 "},"g":{"x_min":67,"x_max":1147,"ha":1208,"o":"m 1147 0 l 544 0 q 202 137 337 0 q 67 484 67 275 q 201 821 67 693 q 545 949 335 949 l 1080 949 l 1080 783 l 544 783 q 320 696 408 783 q 232 471 232 608 q 320 250 232 334 q 544 165 408 165 l 982 165 l 982 373 l 531 373 l 531 524 l 1147 524 l 1147 0 "},"e":{"x_min":89,"x_max":908.15625,"ha":1003,"o":"m 866 398 l 324 398 l 324 564 l 866 564 l 866 398 m 908 0 l 89 0 l 89 949 l 908 949 l 908 783 l 254 783 l 254 165 l 908 165 l 908 0 "},"J":{"x_min":94,"x_max":935,"ha":1024,"o":"m 935 426 q 799 91 935 197 q 439 0 678 0 l 94 0 l 94 165 l 439 165 q 677 213 600 165 q 770 426 770 275 l 770 949 l 935 949 l 935 426 "},"|":{"x_min":118,"x_max":279,"ha":414,"o":"m 279 -293 l 118 -293 l 118 1071 l 279 1071 l 279 -293 "},"^":{"x_min":679.171875,"x_max":1061.109375,"ha":440,"o":"m 1061 1016 l 944 1016 l 868 1070 l 795 1016 l 679 1016 l 780 1102 l 959 1102 l 1061 1016 "},"q":{"x_min":67,"x_max":1287.890625,"ha":1343,"o":"m 1287 0 l 1044 0 l 1007 37 q 810 0 916 0 l 544 0 q 202 137 337 0 q 67 484 67 275 q 201 821 67 693 q 544 949 335 949 l 810 949 q 1154 821 1021 949 q 1287 484 1287 693 q 1151 136 1287 276 l 1287 0 m 1124 471 q 1035 696 1124 608 q 810 783 947 783 l 544 783 q 320 696 408 783 q 232 471 232 608 q 320 250 232 334 q 544 165 408 165 l 680 165 q 873 169 843 165 l 758 286 l 1001 286 l 1036 250 q 1124 471 1124 337 "},"b":{"x_min":96,"x_max":1154,"ha":1237,"o":"m 1154 276 q 1123 160 1154 215 q 776 1 1031 1 l 96 1 l 96 950 l 776 950 q 1116 798 1019 950 q 1154 668 1154 737 q 1053 469 1154 549 q 1154 276 1154 391 m 994 669 q 924 761 994 729 q 801 784 870 784 l 261 784 l 261 166 l 801 166 q 921 187 869 166 q 994 274 994 217 q 921 363 994 333 q 801 386 867 386 l 359 386 l 359 551 l 801 551 q 924 576 870 551 q 994 669 994 608 "},"D":{"x_min":125,"x_max":1137,"ha":1183,"o":"m 1137 484 q 1002 137 1137 275 q 659 0 867 0 l 125 0 l 125 949 l 659 949 q 1003 821 869 949 q 1137 484 1137 693 m 972 471 q 883 696 972 608 q 659 783 795 783 l 288 783 l 288 165 l 659 165 q 883 250 795 165 q 972 471 972 334 "},"z":{"x_min":46,"x_max":1063,"ha":1116,"o":"m 1063 0 l 176 0 q 70 68 70 0 q 121 161 70 111 l 741 783 l 46 783 l 46 949 l 918 949 q 991 930 961 949 q 1028 869 1028 910 q 986 787 1028 828 l 365 165 l 1063 165 l 1063 0 "},"ˆ":{"x_min":415.28125,"x_max":797.21875,"ha":818,"o":"m 797 1016 l 680 1016 l 604 1070 l 531 1016 l 415 1016 l 515 1102 l 695 1102 l 797 1016 "},"w":{"x_min":26.390625,"x_max":1672.21875,"ha":1674,"o":"m 1672 949 l 1183 78 q 1080 -15 1131 -15 q 977 78 1029 -15 l 844 321 l 708 78 q 605 -15 656 -15 q 502 78 554 -15 l 26 949 l 238 949 l 609 258 l 743 507 l 501 949 l 713 949 l 1084 258 l 1459 949 l 1672 949 "},"$":{"x_min":75,"x_max":1143,"ha":1257,"o":"m 1143 445 q 1111 337 1143 387 q 818 208 1029 208 l 793 208 l 793 168 l 628 168 l 628 208 l 569 208 l 569 168 l 404 168 l 404 208 l 257 208 l 257 373 l 404 373 l 404 522 l 369 522 q 169 578 253 522 q 75 756 75 644 q 169 933 75 868 q 369 990 253 990 l 404 990 l 404 1043 l 569 1043 l 569 990 l 628 990 l 628 1043 l 793 1043 l 793 990 l 921 990 l 921 825 l 793 825 l 793 687 l 818 687 q 1111 555 1027 687 q 1143 445 1143 503 m 628 687 l 628 825 l 569 825 l 569 687 l 628 687 m 968 446 q 910 508 968 487 q 818 522 868 522 l 793 522 l 793 373 l 818 373 q 909 387 868 373 q 968 446 968 406 m 404 687 l 404 825 l 369 825 q 297 811 329 825 q 256 755 256 791 q 297 701 256 719 q 369 687 329 687 l 404 687 m 628 373 l 628 522 l 569 522 l 569 373 l 628 373 "},"™":{"x_min":60,"x_max":700,"ha":779,"o":"m 241 672 l 241 362 l 159 362 l 159 672 l 60 672 l 60 747 l 336 747 l 336 672 l 241 672 m 622 574 l 538 360 l 447 583 l 447 364 l 371 364 l 371 749 l 463 749 l 537 549 l 609 749 l 700 749 l 700 364 l 622 364 l 622 574 "},"\\":{"x_min":44.4375,"x_max":1072.21875,"ha":1072,"o":"m 1072 -1 l 890 -1 l 44 949 l 218 949 l 1072 -1 "},"~":{"x_min":86,"x_max":1878,"ha":1964,"o":"m 86 407 l 88 407 l 88 472 l 181 472 l 181 511 l 156 511 l 156 633 l 181 633 l 181 676 l 156 676 l 156 728 l 765 728 l 765 664 q 731 682 755 682 q 668 575 668 682 q 734 470 668 470 q 777 495 755 470 l 777 472 l 811 472 l 811 728 l 1330 728 l 1330 692 l 1377 692 l 1377 728 l 1878 728 l 1878 0 l 86 0 l 86 407 m 1303 472 l 1303 602 q 1237 678 1303 678 q 1194 644 1204 678 q 1155 678 1181 678 q 1118 644 1131 678 l 1118 676 l 1073 676 l 1073 511 l 1047 511 l 1047 472 l 1144 472 l 1144 511 l 1118 511 l 1118 596 q 1144 628 1118 628 q 1165 596 1165 628 l 1165 472 l 1236 472 l 1236 511 l 1210 511 l 1210 595 q 1236 626 1210 626 q 1257 596 1257 626 l 1257 472 l 1303 472 m 1369 371 l 1292 371 l 1292 108 l 1336 108 l 1336 278 l 1346 278 l 1346 108 l 1433 108 l 1433 371 l 1389 371 l 1389 201 l 1384 201 l 1369 371 m 666 371 l 666 108 l 776 108 l 792 137 l 792 223 l 780 243 l 780 247 l 792 267 l 792 343 l 776 371 l 666 371 m 1147 343 l 1147 137 l 1160 108 l 1254 108 l 1271 137 l 1271 343 l 1255 371 l 1160 371 l 1147 343 m 376 371 l 376 108 l 429 108 l 429 223 l 444 223 l 444 108 l 501 108 l 501 213 l 480 243 l 480 247 l 501 275 l 501 343 l 485 371 l 376 371 m 355 407 l 400 407 l 400 484 q 434 468 410 468 q 498 573 498 468 q 431 679 498 679 q 388 651 412 679 l 388 676 l 355 676 l 355 407 m 660 572 q 583 681 660 681 q 508 572 508 681 q 583 467 508 467 q 660 572 660 467 m 1644 290 l 1697 290 l 1697 343 l 1683 371 l 1591 371 l 1576 343 l 1576 251 l 1592 223 l 1644 210 l 1644 158 l 1630 158 l 1630 197 l 1576 197 l 1576 137 l 1591 108 l 1681 108 l 1697 137 l 1697 237 l 1679 267 l 1630 278 l 1630 324 l 1644 324 l 1644 290 m 355 108 l 355 203 l 319 371 l 262 371 l 231 203 l 231 108 l 282 108 l 282 158 l 300 158 l 300 108 l 355 108 m 644 108 l 644 203 l 611 371 l 554 371 l 522 203 l 522 108 l 575 108 l 575 158 l 592 158 l 592 108 l 644 108 m 235 407 l 263 407 q 340 505 340 415 l 340 676 l 294 676 l 294 550 q 266 514 294 514 q 240 550 240 514 l 240 676 l 196 676 l 196 558 q 259 470 196 470 q 294 480 279 470 q 255 449 294 449 l 235 449 l 235 407 m 941 221 l 978 221 l 978 267 l 941 267 l 941 316 l 978 316 l 978 371 l 889 371 l 889 108 l 978 108 l 978 167 l 941 167 l 941 221 m 1091 216 l 1125 216 l 1125 262 l 1091 262 l 1091 315 l 1125 315 l 1125 371 l 1038 371 l 1038 108 l 1091 108 l 1091 216 m 1477 315 l 1477 108 l 1532 108 l 1532 315 l 1561 315 l 1561 371 l 1447 371 l 1447 315 l 1477 315 m 951 676 l 930 676 l 930 644 q 884 681 915 681 q 825 620 825 681 q 855 570 825 583 q 823 524 823 558 q 885 467 823 467 q 933 485 916 467 q 951 541 951 503 l 930 541 q 895 514 926 514 q 868 533 868 514 q 895 558 868 558 l 909 558 l 909 583 l 895 583 q 868 606 868 583 q 895 629 868 629 q 930 602 919 629 l 951 602 l 951 676 m 1522 674 l 1500 674 l 1500 644 q 1457 681 1482 681 q 1389 572 1389 681 q 1459 468 1389 468 q 1522 549 1509 468 l 1500 549 q 1464 517 1495 517 q 1433 572 1433 517 q 1465 630 1433 630 q 1498 592 1498 630 l 1522 592 l 1522 674 m 210 167 l 179 167 l 179 371 l 126 371 l 126 108 l 210 108 l 210 167 m 868 108 l 868 371 l 814 371 l 814 108 l 868 108 m 1028 511 l 1008 511 l 1008 601 q 1028 629 1008 629 q 1044 620 1036 629 l 1059 666 q 1036 678 1048 676 q 992 644 1006 678 l 992 676 l 966 676 l 966 472 l 1028 472 l 1028 511 m 1310 677 l 1310 633 l 1331 633 l 1331 472 l 1378 472 l 1378 677 l 1310 677 m 397 607 q 426 628 405 628 q 455 574 455 628 q 424 515 455 515 q 397 538 405 515 l 397 607 m 614 572 q 583 517 614 517 q 554 572 554 517 q 583 630 554 630 q 614 572 614 630 m 768 541 q 740 521 759 521 q 711 574 711 521 q 741 634 711 634 q 768 611 759 634 l 768 541 m 88 511 l 88 633 l 114 633 l 114 511 l 88 511 m 1200 158 l 1200 324 l 1215 324 l 1215 158 l 1200 158 m 88 677 l 88 728 l 114 728 l 114 677 l 88 677 m 282 197 l 282 223 l 290 293 l 292 293 l 300 223 l 300 197 l 282 197 m 575 197 l 575 223 l 582 293 l 589 293 l 589 223 l 589 197 l 575 197 m 721 224 l 736 224 l 736 159 l 721 159 l 721 224 m 721 267 l 721 324 l 736 324 l 736 267 l 721 267 m 429 267 l 429 324 l 444 324 l 444 267 l 429 267 "},"-":{"x_min":60,"x_max":575,"ha":699,"o":"m 575 397 l 60 397 l 60 561 l 575 561 l 575 397 "},"Q":{"x_min":67,"x_max":1287.890625,"ha":1343,"o":"m 1287 0 l 1044 0 l 1007 37 q 810 0 916 0 l 544 0 q 202 137 337 0 q 67 484 67 275 q 201 821 67 693 q 544 949 335 949 l 810 949 q 1154 821 1021 949 q 1287 484 1287 693 q 1151 136 1287 276 l 1287 0 m 1124 471 q 1035 696 1124 608 q 810 783 947 783 l 544 783 q 320 696 408 783 q 232 471 232 608 q 320 250 232 334 q 544 165 408 165 l 680 165 q 873 169 843 165 l 758 286 l 1001 286 l 1036 250 q 1124 471 1124 337 "},"M":{"x_min":36.109375,"x_max":1505.5625,"ha":1594,"o":"m 1505 -1 l 1319 -1 l 1181 662 l 863 50 q 775 -12 831 -12 q 677 51 711 -12 l 359 662 l 223 -1 l 36 -1 l 248 869 q 285 935 256 907 q 351 963 313 963 q 454 869 405 963 l 770 249 l 1088 869 q 1191 963 1137 963 q 1258 933 1227 963 q 1294 869 1284 907 l 1505 -1 "},"C":{"x_min":67,"x_max":1081,"ha":1149,"o":"m 1081 0 l 544 0 q 202 137 337 0 q 67 484 67 275 q 201 821 67 693 q 544 949 335 949 l 1081 949 l 1081 783 l 544 783 q 320 696 408 783 q 232 471 232 608 q 320 250 232 334 q 544 165 408 165 l 1081 165 l 1081 0 "},"[":{"x_min":117,"x_max":307.4375,"ha":692,"o":"m 307 -139 l 296 -139 q 117 186 117 -139 l 117 757 q 142 969 117 896 q 295 1088 183 1088 l 294 1088 l 297 1088 l 307 1088 l 307 922 q 206 874 232 922 q 188 757 188 840 l 188 186 q 208 72 188 108 q 307 26 235 26 l 307 -139 "},"L":{"x_min":47,"x_max":864.78125,"ha":900,"o":"m 864 0 l 47 0 l 47 949 l 212 949 l 212 165 l 864 165 l 864 0 "},"!":{"x_min":99,"x_max":268,"ha":397,"o":"m 264 231 l 99 231 l 99 949 l 264 949 l 264 231 m 268 80 q 243 19 268 43 q 183 -4 219 -4 q 122 19 146 -4 q 99 80 99 43 q 122 140 99 116 q 183 164 146 164 q 243 140 219 164 q 268 80 268 116 "}," ":{"x_min":0,"x_max":0,"ha":440},"{":{"x_min":117,"x_max":307.4375,"ha":692,"o":"m 307 -139 l 296 -139 q 117 186 117 -139 l 117 757 q 142 969 117 896 q 295 1088 183 1088 l 294 1088 l 297 1088 l 307 1088 l 307 922 q 206 874 232 922 q 188 757 188 840 l 188 186 q 208 72 188 108 q 307 26 235 26 l 307 -139 "},"X":{"x_min":29.171875,"x_max":1172.21875,"ha":1203,"o":"m 1172 -1 l 934 -1 l 600 344 l 266 -1 l 29 -1 l 490 472 l 29 949 l 258 949 l 600 599 l 941 949 l 1172 949 l 709 472 l 1172 -1 "},"P":{"x_min":72,"x_max":1132,"ha":1161,"o":"m 1132 607 q 1018 355 1132 451 q 752 267 912 267 l 335 267 l 335 431 l 779 431 q 916 479 860 431 q 972 608 972 528 q 916 736 972 689 q 778 783 860 783 l 237 783 l 237 0 l 72 0 l 72 949 l 752 949 q 1018 858 912 949 q 1132 607 1132 764 "},"%":{"x_min":58,"x_max":483,"ha":534,"o":"m 268 918 q 242 823 268 865 q 162 775 213 775 q 83 823 112 775 q 58 918 58 865 q 83 1014 58 972 q 162 1063 112 1063 q 242 1014 213 1063 q 268 918 268 972 m 469 1063 l 147 500 l 73 500 l 397 1063 l 469 1063 m 483 643 q 458 548 483 590 q 379 500 428 500 q 299 548 329 500 q 275 643 275 590 q 299 737 275 697 q 379 788 328 788 q 458 737 429 788 q 483 643 483 697 m 219 918 q 199 952 219 939 q 159 966 180 966 q 123 951 140 966 q 107 919 107 937 q 126 885 107 898 q 166 872 145 872 q 202 886 185 872 q 219 918 219 900 m 436 643 q 415 675 436 662 q 374 689 395 689 q 339 675 356 689 q 322 643 322 662 q 342 610 322 623 q 383 597 362 597 q 419 610 402 597 q 436 643 436 624 "},"#":{"x_min":39,"x_max":647,"ha":686,"o":"m 246 279 l 401 279 l 446 495 l 290 495 l 246 279 m 467 281 l 597 281 l 597 193 l 452 193 l 410 0 l 345 0 l 384 193 l 230 193 l 190 0 l 123 0 l 162 193 l 39 193 l 39 281 l 180 281 l 221 493 l 90 493 l 90 581 l 241 581 l 276 769 l 345 769 l 309 581 l 462 581 l 501 769 l 567 769 l 530 581 l 647 581 l 647 493 l 512 493 l 467 281 "},"_":{"x_min":4,"x_max":1039,"ha":1039,"o":"m 1039 -296 l 4 -296 l 4 -130 l 1039 -130 l 1039 -296 "},"+":{"x_min":46,"x_max":535,"ha":625,"o":"m 535 398 l 376 398 l 376 224 l 211 224 l 211 398 l 46 398 l 46 562 l 211 562 l 211 726 l 376 726 l 376 562 l 535 562 l 535 398 "},")":{"x_min":65.5625,"x_max":256,"ha":344,"o":"m 256 186 q 78 -139 256 -139 l 65 -139 l 65 26 q 165 72 137 26 q 185 186 185 108 l 185 757 q 167 874 185 840 q 66 922 142 922 l 66 1088 l 78 1088 q 231 969 190 1088 q 256 757 256 896 l 256 186 "},"'":{"x_min":68,"x_max":231.875,"ha":374,"o":"m 231 999 l 179 709 l 68 709 l 68 999 l 231 999 "},"}":{"x_min":65.5625,"x_max":256,"ha":645,"o":"m 256 186 q 78 -139 256 -139 l 65 -139 l 65 26 q 165 72 137 26 q 185 186 185 108 l 185 757 q 167 874 185 840 q 66 922 142 922 l 66 1088 l 78 1088 q 231 969 190 1088 q 256 757 256 896 l 256 186 "},"a":{"x_min":31.9375,"x_max":1308.328125,"ha":1299,"o":"m 1308 0 l 1095 0 l 936 267 l 486 267 l 586 431 l 837 431 l 672 704 l 244 1 l 31 1 l 547 858 q 601 920 566 892 q 676 952 643 952 q 751 921 712 952 q 805 858 784 895 l 1308 0 "},"T":{"x_min":32,"x_max":945,"ha":969,"o":"m 945 783 l 570 783 l 570 0 l 407 0 l 407 783 l 32 783 l 32 949 l 945 949 l 945 783 "},"=":{"x_min":100,"x_max":656,"ha":731,"o":"m 656 513 l 100 513 l 100 677 l 656 677 l 656 513 m 656 263 l 100 263 l 100 428 l 656 428 l 656 263 "},"N":{"x_min":99,"x_max":1036,"ha":1171,"o":"m 1036 81 q 973 -10 1036 -10 q 871 47 927 -10 l 262 658 l 262 0 l 99 0 l 99 867 q 117 924 99 900 q 168 949 135 949 q 262 900 214 949 l 871 290 l 871 949 l 1036 949 l 1036 81 "},"˚":{"x_min":481,"x_max":741,"ha":794,"o":"m 741 1057 q 692 1000 741 1020 q 611 985 653 985 q 530 1001 568 985 q 481 1056 481 1020 q 531 1113 481 1094 q 611 1129 568 1129 q 692 1113 653 1129 q 741 1057 741 1093 m 694 1056 q 661 1093 694 1080 q 611 1103 638 1103 q 560 1093 583 1103 q 528 1056 528 1080 q 560 1020 528 1033 q 611 1011 583 1011 q 661 1020 638 1011 q 694 1056 694 1034 "},"2":{"x_min":81,"x_max":1044,"ha":1143,"o":"m 1044 687 q 955 493 1044 566 q 748 425 871 425 l 406 425 q 289 397 339 425 q 231 301 231 362 l 231 165 l 1022 165 l 1022 0 l 81 0 l 81 301 q 179 513 81 432 q 406 590 271 590 l 748 590 q 828 615 795 590 q 862 686 862 640 q 828 757 862 730 q 748 783 795 783 l 96 783 l 96 949 l 748 949 q 955 880 871 949 q 1044 687 1044 807 "},"j":{"x_min":94,"x_max":935,"ha":1024,"o":"m 935 426 q 799 91 935 197 q 439 0 678 0 l 94 0 l 94 165 l 439 165 q 677 213 600 165 q 770 426 770 275 l 770 949 l 935 949 l 935 426 "},"Z":{"x_min":46,"x_max":1063,"ha":1116,"o":"m 1063 0 l 176 0 q 70 68 70 0 q 121 161 70 111 l 741 783 l 46 783 l 46 949 l 918 949 q 991 930 961 949 q 1028 869 1028 910 q 986 787 1028 828 l 365 165 l 1063 165 l 1063 0 "},"u":{"x_min":106,"x_max":1154,"ha":1265,"o":"m 1154 426 q 1016 91 1154 197 q 658 0 895 0 l 601 0 q 243 91 364 0 q 106 426 106 197 l 106 949 l 271 949 l 271 426 q 389 200 271 255 q 658 165 465 165 q 894 213 819 165 q 989 426 989 275 l 989 949 l 1154 949 l 1154 426 "},"1":{"x_min":51,"x_max":417.890625,"ha":533,"o":"m 417 614 l 417 0 l 254 0 l 254 614 q 98 783 254 783 l 51 783 l 51 949 l 98 949 q 335 859 252 949 q 417 614 417 769 "},"˜":{"x_min":389,"x_max":811,"ha":774,"o":"m 811 1105 q 767 1038 811 1060 q 684 1020 733 1020 q 570 1043 641 1020 q 470 1066 498 1066 q 408 1021 426 1066 l 389 1021 q 511 1105 389 1105 q 624 1082 554 1105 q 727 1060 695 1060 q 790 1105 774 1060 l 811 1105 "},"k":{"x_min":92,"x_max":1050.5,"ha":1066,"o":"m 1050 0 l 807 0 l 336 393 q 288 469 288 434 q 336 544 288 502 l 807 949 l 1050 949 l 485 465 l 1050 0 m 257 0 l 92 0 l 92 949 l 257 949 l 257 0 "},"<":{"x_min":39,"x_max":1008,"ha":1087,"o":"m 1008 157 l 105 462 q 39 540 39 484 q 105 618 39 596 l 1008 924 l 1008 750 l 388 540 l 1008 330 l 1008 157 "},"t":{"x_min":32,"x_max":945,"ha":969,"o":"m 945 783 l 570 783 l 570 0 l 407 0 l 407 783 l 32 783 l 32 949 l 945 949 l 945 783 "},"W":{"x_min":26.390625,"x_max":1672.21875,"ha":1674,"o":"m 1672 949 l 1183 78 q 1080 -15 1131 -15 q 977 78 1029 -15 l 844 321 l 708 78 q 605 -15 656 -15 q 502 78 554 -15 l 26 949 l 238 949 l 609 258 l 743 507 l 501 949 l 713 949 l 1084 258 l 1459 949 l 1672 949 "},"v":{"x_min":12.5,"x_max":1288.890625,"ha":1281,"o":"m 1288 949 l 747 78 q 644 -15 690 -15 q 543 78 600 -15 l 12 949 l 225 949 l 648 244 l 1076 949 l 1288 949 "},">":{"x_min":19,"x_max":988,"ha":996,"o":"m 988 540 q 921 462 988 484 l 19 154 l 19 330 l 638 540 l 19 750 l 19 924 l 921 618 q 988 540 988 596 "},"s":{"x_min":36,"x_max":1104,"ha":1158,"o":"m 1104 293 q 1008 76 1104 158 q 778 0 916 0 l 55 0 l 55 165 l 779 165 q 897 195 847 165 q 954 297 954 233 q 895 395 954 361 q 779 425 847 425 l 331 425 q 124 493 208 425 q 36 687 36 566 q 124 880 36 807 q 331 949 208 949 l 1047 949 l 1047 783 l 331 783 q 251 757 284 783 q 218 686 218 730 q 251 615 218 640 q 331 590 284 590 l 779 590 q 1008 511 916 590 q 1104 293 1104 427 "},"B":{"x_min":96,"x_max":1154,"ha":1237,"o":"m 1154 276 q 1123 160 1154 215 q 776 1 1031 1 l 96 1 l 96 950 l 776 950 q 1116 798 1019 950 q 1154 668 1154 737 q 1053 469 1154 549 q 1154 276 1154 391 m 994 669 q 924 761 994 729 q 801 784 870 784 l 261 784 l 261 166 l 801 166 q 921 187 869 166 q 994 274 994 217 q 921 363 994 333 q 801 386 867 386 l 359 386 l 359 551 l 801 551 q 924 576 870 551 q 994 669 994 608 "},"?":{"x_min":53,"x_max":957,"ha":963,"o":"m 957 679 q 848 476 957 551 q 618 412 753 412 l 222 412 l 222 230 l 57 230 l 57 494 q 82 552 57 527 q 138 578 107 578 l 644 578 q 744 600 701 578 q 799 680 799 628 q 744 761 799 733 q 644 783 701 783 l 57 783 l 57 949 l 618 949 q 848 883 753 949 q 957 679 957 808 m 222 80 q 198 19 222 43 q 137 -4 174 -4 q 77 19 101 -4 q 53 80 53 43 q 77 140 53 116 q 137 164 101 164 q 198 140 174 164 q 222 80 222 116 "},"H":{"x_min":93,"x_max":1055,"ha":1131,"o":"m 1055 0 l 890 0 l 890 394 l 333 394 l 333 560 l 890 560 l 890 949 l 1055 949 l 1055 0 m 258 0 l 93 0 l 93 949 l 258 949 l 258 0 "},"c":{"x_min":67,"x_max":1080,"ha":1149,"o":"m 1080 0 l 545 0 q 202 137 337 0 q 67 484 67 275 q 201 821 67 693 q 545 949 335 949 l 1080 949 l 1080 783 l 544 783 q 320 696 408 783 q 232 471 232 608 q 320 250 232 334 q 544 165 408 165 l 1080 165 l 1080 0 "},"&":{"x_min":39,"x_max":967,"ha":1028,"o":"m 967 1 l 418 1 q 72 159 164 1 q 39 276 39 213 q 140 469 39 391 q 39 668 39 549 q 69 783 39 729 q 418 950 159 950 l 489 950 l 489 784 l 391 784 q 269 761 323 784 q 199 669 199 729 q 269 576 199 608 q 391 551 323 551 l 594 551 l 594 711 l 750 711 l 750 551 l 967 551 l 967 386 l 750 386 l 750 166 l 967 166 l 967 1 m 594 166 l 594 386 l 391 386 q 271 363 325 386 q 199 274 199 333 q 271 187 199 217 q 391 166 325 166 l 594 166 "},"I":{"x_min":115,"x_max":280,"ha":415,"o":"m 280 0 l 115 0 l 115 949 l 280 949 l 280 0 "},"G":{"x_min":67,"x_max":1147,"ha":1208,"o":"m 1147 0 l 544 0 q 202 137 337 0 q 67 484 67 275 q 201 821 67 693 q 544 949 335 949 l 1081 949 l 1081 783 l 544 783 q 320 696 408 783 q 232 471 232 608 q 320 250 232 334 q 544 165 408 165 l 982 165 l 982 373 l 531 373 l 531 524 l 1147 524 l 1147 0 "},"(":{"x_min":50,"x_max":242,"ha":316,"o":"m 242 -139 l 229 -139 q 50 186 50 -139 l 50 757 q 76 969 50 896 q 229 1088 116 1088 l 230 1088 l 242 1088 l 242 922 q 140 874 165 922 q 121 757 121 840 l 121 186 q 141 72 121 108 q 242 26 169 26 l 242 -139 "},"`":{"x_min":463.890625,"x_max":727.78125,"ha":707,"o":"m 727 1013 l 613 1013 l 463 1103 l 615 1103 l 727 1013 "},"U":{"x_min":106,"x_max":1154,"ha":1265,"o":"m 1154 426 q 1016 91 1154 197 q 658 0 895 0 l 601 0 q 243 91 364 0 q 106 426 106 197 l 106 949 l 271 949 l 271 426 q 389 200 271 255 q 658 165 465 165 q 894 213 819 165 q 989 426 989 275 l 989 949 l 1154 949 l 1154 426 "},"F":{"x_min":89,"x_max":908.15625,"ha":965,"o":"m 866 398 l 324 398 l 324 564 l 866 564 l 866 398 m 908 783 l 254 783 l 254 0 l 89 0 l 89 949 l 908 949 l 908 783 "},"r":{"x_min":72,"x_max":1201.609375,"ha":1266,"o":"m 1201 0 l 956 0 l 691 267 l 335 267 l 335 431 l 779 431 q 933 471 870 431 q 1004 605 1004 518 q 778 783 1004 783 l 237 783 l 237 0 l 72 0 l 72 949 l 752 949 q 1048 869 936 949 q 1178 604 1178 779 q 1102 399 1178 485 q 913 286 1033 318 l 1201 0 "},":":{"x_min":97,"x_max":266,"ha":377,"o":"m 266 512 q 242 452 266 476 q 181 429 218 429 q 121 452 145 429 q 97 512 97 476 q 121 573 97 550 q 181 596 145 596 q 242 573 218 596 q 266 512 266 550 m 266 80 q 242 19 266 43 q 181 -4 218 -4 q 121 19 145 -4 q 97 80 97 43 q 121 140 97 116 q 181 164 145 164 q 242 140 218 164 q 266 80 266 116 "},"x":{"x_min":48.609375,"x_max":1191.671875,"ha":1224,"o":"m 1191 -1 l 954 -1 l 620 344 l 286 -1 l 48 -1 l 511 472 l 48 949 l 279 949 l 620 599 l 962 949 l 1191 949 l 730 472 l 1191 -1 "},"*":{"x_min":36.109375,"x_max":562.5,"ha":657,"o":"m 562 469 l 375 448 l 302 273 l 225 453 l 36 453 l 176 587 l 130 772 l 295 678 l 456 778 l 418 591 l 562 469 "},"V":{"x_min":12.5,"x_max":1288.890625,"ha":1281,"o":"m 1288 949 l 747 78 q 644 -15 690 -15 q 543 78 600 -15 l 12 949 l 225 949 l 648 244 l 1076 949 l 1288 949 "},"h":{"x_min":93,"x_max":1055,"ha":1131,"o":"m 1055 0 l 890 0 l 890 394 l 333 394 l 333 560 l 890 560 l 890 949 l 1055 949 l 1055 0 m 258 0 l 93 0 l 93 949 l 258 949 l 258 0 "},"0":{"x_min":67,"x_max":1090,"ha":1136,"o":"m 1090 484 q 954 138 1090 276 q 612 0 819 0 l 544 0 q 201 137 336 0 q 67 484 67 275 q 200 821 67 693 q 544 949 333 949 l 612 949 q 956 821 822 949 q 1090 484 1090 693 m 925 471 q 836 696 925 608 q 612 783 748 783 l 544 783 q 320 696 408 783 q 232 471 232 608 q 319 250 232 334 q 544 165 406 165 l 612 165 q 836 250 748 165 q 925 471 925 334 "},".":{"x_min":83,"x_max":252,"ha":387,"o":"m 252 80 q 228 19 252 43 q 167 -4 204 -4 q 107 19 131 -4 q 83 80 83 43 q 107 140 83 116 q 167 164 131 164 q 228 140 204 164 q 252 80 252 116 "},"@":{"x_min":87,"x_max":1177,"ha":1276,"o":"m 1177 405 q 1011 255 1177 300 q 760 228 907 228 l 646 228 q 443 273 521 228 q 348 446 348 329 l 348 514 q 399 618 348 578 q 511 656 446 656 l 695 656 q 859 514 859 656 l 859 390 l 889 390 q 968 407 935 390 q 1009 472 1009 427 l 1009 668 q 913 764 1009 733 q 760 783 847 783 l 503 783 q 350 764 414 783 q 256 668 256 735 l 256 252 q 356 180 256 204 q 503 165 425 165 l 1143 165 l 1143 0 l 503 0 q 249 38 366 0 q 87 202 87 94 l 87 746 q 503 949 87 949 l 760 949 q 1017 912 907 949 q 1177 744 1177 860 l 1177 405 m 695 393 l 695 514 l 512 514 l 512 471 q 646 393 512 393 l 695 393 "},"f":{"x_min":89,"x_max":908.15625,"ha":965,"o":"m 866 398 l 324 398 l 324 564 l 866 564 l 866 398 m 908 783 l 254 783 l 254 0 l 89 0 l 89 949 l 908 949 l 908 783 "},";":{"x_min":96,"x_max":271,"ha":378,"o":"m 271 512 q 247 452 271 476 q 186 429 223 429 q 126 452 150 429 q 102 512 102 476 q 126 573 102 550 q 186 596 150 596 q 247 573 223 596 q 271 512 271 550 m 261 279 l 192 -35 l 96 -35 l 96 279 l 261 279 "},"i":{"x_min":115,"x_max":280,"ha":415,"o":"m 280 0 l 115 0 l 115 949 l 280 949 l 280 0 "},"6":{"x_min":66.453125,"x_max":1126,"ha":1286,"o":"m 1126 295 q 1063 91 1126 175 q 876 0 993 0 l 544 0 q 201 137 337 0 q 66 484 66 275 q 200 821 66 693 q 544 949 334 949 l 1028 949 l 1028 783 l 544 783 q 365 733 442 783 q 252 589 287 683 l 876 589 q 1063 498 994 589 q 1126 295 1126 416 m 972 293 q 949 386 972 344 q 876 438 923 438 l 233 438 q 331 239 245 312 q 544 165 417 165 l 876 165 q 949 207 924 165 q 972 293 972 241 "},"A":{"x_min":31.9375,"x_max":1308.328125,"ha":1299,"o":"m 1308 0 l 1095 0 l 936 267 l 486 267 l 586 431 l 837 431 l 672 704 l 244 1 l 31 1 l 547 858 q 601 920 566 892 q 676 952 643 952 q 751 921 712 952 q 805 858 784 895 l 1308 0 "},"n":{"x_min":99,"x_max":1036,"ha":1171,"o":"m 1036 81 q 973 -10 1036 -10 q 871 47 927 -10 l 262 658 l 262 0 l 99 0 l 99 867 q 117 924 99 900 q 168 949 135 949 q 262 900 214 949 l 871 290 l 871 949 l 1036 949 l 1036 81 "},"O":{"x_min":67,"x_max":1287.890625,"ha":1335,"o":"m 1287 484 q 1153 137 1287 275 q 810 0 1018 0 l 544 0 q 202 137 337 0 q 67 484 67 275 q 201 821 67 693 q 544 949 335 949 l 810 949 q 1154 821 1021 949 q 1287 484 1287 693 m 1124 471 q 1035 696 1124 608 q 810 783 947 783 l 544 783 q 320 696 408 783 q 232 471 232 608 q 320 250 232 334 q 544 165 408 165 l 810 165 q 1035 250 947 165 q 1124 471 1124 334 "},"3":{"x_min":96,"x_max":1155,"ha":1261,"o":"m 1155 276 q 1120 152 1155 210 q 776 1 1024 1 l 96 1 l 96 166 l 801 166 q 922 187 870 166 q 995 274 995 217 q 922 363 995 333 q 801 386 868 386 l 359 386 l 359 551 l 801 551 q 925 576 871 551 q 995 669 995 608 q 925 761 995 729 q 801 784 871 784 l 96 784 l 96 950 l 776 950 q 1120 794 1024 950 q 1155 668 1155 734 q 1054 469 1155 549 q 1155 276 1155 391 "},"]":{"x_min":65.5625,"x_max":256,"ha":645,"o":"m 256 186 q 78 -139 256 -139 l 65 -139 l 65 26 q 165 72 137 26 q 185 186 185 108 l 185 757 q 167 874 185 840 q 66 922 142 922 l 66 1088 l 78 1088 q 231 969 190 1088 q 256 757 256 896 l 256 186 "},"m":{"x_min":36.109375,"x_max":1505.5625,"ha":1594,"o":"m 1505 -1 l 1319 -1 l 1181 662 l 863 50 q 775 -12 831 -12 q 677 51 711 -12 l 359 662 l 223 -1 l 36 -1 l 248 869 q 285 935 256 907 q 351 963 313 963 q 454 869 405 963 l 770 249 l 1088 869 q 1191 963 1137 963 q 1258 933 1227 963 q 1294 869 1284 907 l 1505 -1 "},"9":{"x_min":135,"x_max":1195.171875,"ha":1245,"o":"m 1195 465 q 1061 128 1195 255 q 717 1 928 1 l 235 1 l 235 165 l 717 165 q 897 215 820 165 q 1010 359 975 266 l 385 359 q 199 449 268 359 q 135 653 135 532 q 198 858 135 774 q 385 950 268 950 l 717 950 q 1060 811 925 950 q 1195 465 1195 673 m 1029 512 q 931 710 1017 637 q 717 784 845 784 l 385 784 q 311 742 338 784 q 291 656 291 708 q 311 563 291 605 q 385 512 339 512 l 1029 512 "},"l":{"x_min":47,"x_max":864.78125,"ha":900,"o":"m 864 0 l 47 0 l 47 949 l 212 949 l 212 165 l 864 165 l 864 0 "},"8":{"x_min":67,"x_max":1164,"ha":1267,"o":"m 1164 673 q 1042 469 1164 545 q 1160 271 1160 397 q 1129 159 1160 213 q 776 1 1036 1 l 448 1 q 97 159 189 1 q 67 272 67 212 q 183 469 67 397 q 67 674 67 544 q 96 788 67 734 q 448 950 187 950 l 776 950 q 1132 788 1037 950 q 1164 673 1164 734 m 995 669 q 925 761 995 729 q 801 784 871 784 l 424 784 q 300 761 354 784 q 230 669 230 729 q 300 576 230 608 q 423 551 354 551 l 801 551 q 925 576 871 551 q 995 669 995 608 m 995 274 q 922 363 995 333 q 801 386 868 386 l 424 386 q 301 363 355 386 q 230 274 230 333 q 303 187 230 217 q 424 166 355 166 l 801 166 q 922 187 869 166 q 995 274 995 217 "},"p":{"x_min":72,"x_max":1132,"ha":1161,"o":"m 1132 607 q 1018 355 1132 451 q 752 267 912 267 l 335 267 l 335 431 l 779 431 q 916 479 860 431 q 972 608 972 528 q 916 736 972 689 q 778 783 860 783 l 237 783 l 237 0 l 72 0 l 72 949 l 752 949 q 1018 858 912 949 q 1132 607 1132 764 "},"4":{"x_min":35,"x_max":1088,"ha":1176,"o":"m 1088 305 l 947 305 l 947 0 l 782 0 l 782 305 l 545 305 q 191 390 322 305 q 35 703 35 491 l 35 949 l 200 949 l 200 703 q 545 471 200 471 l 782 471 l 782 949 l 947 949 l 947 471 l 1088 471 l 1088 305 "},"R":{"x_min":72,"x_max":1201.609375,"ha":1266,"o":"m 1201 0 l 956 0 l 691 267 l 335 267 l 335 431 l 779 431 q 933 471 870 431 q 1004 605 1004 518 q 778 783 1004 783 l 237 783 l 237 0 l 72 0 l 72 949 l 752 949 q 1048 869 936 949 q 1178 604 1178 779 q 1102 399 1178 485 q 913 286 1033 318 l 1201 0 "},"o":{"x_min":67,"x_max":1287.890625,"ha":1335,"o":"m 1287 484 q 1153 137 1287 275 q 810 0 1018 0 l 544 0 q 202 137 337 0 q 67 484 67 275 q 201 821 67 693 q 544 949 335 949 l 810 949 q 1154 821 1021 949 q 1287 484 1287 693 m 1124 471 q 1035 696 1124 608 q 810 783 947 783 l 544 783 q 320 696 408 783 q 232 471 232 608 q 320 250 232 334 q 544 165 408 165 l 810 165 q 1035 250 947 165 q 1124 471 1124 334 "},"5":{"x_min":25,"x_max":1074,"ha":1125,"o":"m 1074 293 q 976 76 1074 158 q 748 0 886 0 l 25 0 l 25 165 l 748 165 q 865 195 815 165 q 924 297 924 233 q 865 395 924 361 q 748 425 815 425 l 25 425 l 25 949 l 1016 949 l 1016 783 l 186 783 l 186 590 l 748 590 q 976 511 885 590 q 1074 293 1074 427 "}}}
